{"title":"Jack the Giant Slayer 2013 1080p x264 - alrmothe","uid":8543330,"size":8309892540,"categoryP":"video","categoryS":"hd___movies","magnet":"?xt=urn:btih:ef1992f3c0a3677e633ae349ba4048a638bb6286&amp;dn=Jack+the+Giant+Slayer+2013+1080p+x264+-+alrmothe&amp;tr=udp%3A%2F%2Ftracker.openbittorrent.com%3A80&amp;tr=udp%3A%2F%2Fopen.demonii.com%3A1337&amp;tr=udp%3A%2F%2Ftracker.coppersurfer.tk%3A6969&amp;tr=udp%3A%2F%2Fexodus.desync.com%3A6969","seeders":1,"leechers":0,"uploader":".alrmothe","files":21,"time":1370454207,"description":"Movies : Adventure  : BluRay : English\n\n\nJack the Giant Slayer 2013 1080p x264 - alrmothe\n\n\n\n\n\n\nIMDB: &lt;a href=&quot;\nhttp://www.imdb.com/title/tt1351685/&quot; rel=&quot;nofollow&quot; target=&quot;_NEW&quot;&gt;\nhttp://www.imdb.com/title/tt1351685/&lt;/a&gt;\nGenre: Adventure | Fantasy\nSource:Remux KRaLiMaRKo\nLanguage:English\nFile size:7.70 GiB\nOverall bit rate:9640 kbps\nDuration:1h 54mn\nEncoded / Released By:alrmothe\n\n\nStoryline:Sent to the market by his uncle to sell their horse and buy thatch for their roof, Jack meets the beautiful Princess Isabelle whom he rescues her from ruffians. He returns home only with a handful of beans given to him by a monk who claimed they were sacred but that does little to impress his uncle who tosses them away. In the night the Princess arrives having run off to keep from marrying Roderick who is clearly only interested in becoming king. Soon the beans take root with a giant stalk carrying away the princess and Jack's house. He soon sets off on an adventure with the king's guards to rescue the princess only to find that a mythical land filled with giants really exists.\n\n\n\ncast\nNicholas Hoult ... Jack\nEleanor Tomlinson ... Isabelle\nEwan McGregor ... Elmont\nStanley Tucci ... Roderick\nEddie Marsan ... Crawe\nEwen Bremner ... Wicke\n\n\n\n\nVideo Information\n\nFormat: Matroska\nFormat : AVC \nFormat/Info : Advanced Video Codec \nFormat profile : &lt;a class=&quot;__cf_email__&quot; href=&quot;/cdn-cgi/l/email-protection&quot; data-cfemail=&quot;155d7c727d5559213b24&quot;&gt;[email&amp;#160;protected]&lt;/a&gt;&lt;script cf-hash='f9e31' type=&quot;text/javascript&quot;&gt;\n/* &lt;![CDATA[ */!function(){try{var t=&quot;currentScript&quot;in document?document.currentScript:function(){for(var t=document.getElementsByTagName(&quot;script&quot;),e=t.length;e--;)if(t[e].getAttribute(&quot;cf-hash&quot;))return t[e]}();if(t&amp;&amp;t.previousSibling){var e,r,n,i,c=t.previousSibling,a=c.getAttribute(&quot;data-cfemail&quot;);if(a){for(e=&quot;&quot;,r=parseInt(a.substr(0,2),16),n=2;a.length-n;n+=2)i=parseInt(a.substr(n,2),16)^r,e+=String.fromCharCode(i);e=document.createTextNode(e),c.parentNode.replaceChild(e,c)}}}catch(u){}}();/* ]]&gt; */&lt;/script&gt; \nFormat settings, CABAC : Yes \nFormat settings, ReFrames : 4 frames  \nCodec ID : V_MPEG4/ISO/AVC  \nBit rate : 9000 kbps \nDisplay aspect ratio : 2:40:1 \nFrame rate : 23.976 fps \nColor space : YUV \nChroma subsampling : 4:2:0 \nBit depth : 8 bits \nScan type : Progressive \nBits/(Pixel*Frame) : 0.244 \nStream size: 7.04 GiB \nResolution:1920x800\n\n\nAudio Information:\nFormat: AC3\nBit rate 640 Kbps\nChannel(s) : 6 channels\nChannel positions:Front: L C R, Side: L R, LFE\nSampling rate: 48.0 KHz\nBit depth: 16 bits\nCompression mode: Lossy\nStream size:524 GiB\nLanguage:English\n\n\nChapters::yes(not named)\n\nsample:yes\n\n\nSUB:Arabic, English.\n\n\nScreenshots &lt;a href=&quot;\nhttp://img11.imageshack.us/img11/6379/vlcsnap2013060517h45m15.png&quot; rel=&quot;nofollow&quot; target=&quot;_NEW&quot;&gt;\nhttp://img11.imageshack.us/img11/6379/vlcsnap2013060517h45m15.png&lt;/a&gt; &lt;a href=&quot;\nhttp://img856.imageshack.us/img856/2343/vlcsnap2013060517h50m01.png&quot; rel=&quot;nofollow&quot; target=&quot;_NEW&quot;&gt;\nhttp://img856.imageshack.us/img856/2343/vlcsnap2013060517h50m01.png&lt;/a&gt; &lt;a href=&quot;\nhttp://img194.imageshack.us/img194/5748/vlcsnap2013060517h45m56.png&quot; rel=&quot;nofollow&quot; target=&quot;_NEW&quot;&gt;\nhttp://img194.imageshack.us/img194/5748/vlcsnap2013060517h45m56.png&lt;/a&gt; &lt;a href=&quot;\nhttp://img545.imageshack.us/img545/377/vlcsnap2013060517h50m47.png&quot; rel=&quot;nofollow&quot; target=&quot;_NEW&quot;&gt;\nhttp://img545.imageshack.us/img545/377/vlcsnap2013060517h50m47.png&lt;/a&gt; &lt;a href=&quot;\nhttp://img542.imageshack.us/img542/3509/vlcsnap2013060517h46m31.png&quot; rel=&quot;nofollow&quot; target=&quot;_NEW&quot;&gt;\nhttp://img542.imageshack.us/img542/3509/vlcsnap2013060517h46m31.png&lt;/a&gt;\n\nUse KMPlayer for the best quality\n\n\n\n\nCode:\n &lt;a href=&quot;\nhttp://p2pdl.com:2710/announce&quot; rel=&quot;nofollow&quot; target=&quot;_NEW&quot;&gt;\nhttp://p2pdl.com:2710/announce&lt;/a&gt; &lt;a href=&quot;\nhttp://exodus.desync.com:6969/announce&quot; rel=&quot;nofollow&quot; target=&quot;_NEW&quot;&gt;\nhttp://exodus.desync.com:6969/announce&lt;/a&gt;\nudp://tracker.openbittorrent.com:80/announce\nudp://tracker.istole.it:80/announce\nudp://tracker.publicbt.com:80/announce\nudp://10.rarbg.me:80/announce &lt;a href=&quot;\nhttp://bt.poletracker.org:2710/announce&quot; rel=&quot;nofollow&quot; target=&quot;_NEW&quot;&gt;\nhttp://bt.poletracker.org:2710/announce&lt;/a&gt;\nudp://ipv4.tracker.harry.lu:80/announce &lt;a href=&quot;\nhttp://94.228.192.98/announce&quot; rel=&quot;nofollow&quot; target=&quot;_NEW&quot;&gt;\nhttp://94.228.192.98/announce&lt;/a&gt; &lt;a href=&quot;\nhttp://announce.opensharing.org:2710/announce&quot; rel=&quot;nofollow&quot; target=&quot;_NEW&quot;&gt;\nhttp://announce.opensharing.org:2710/announce&lt;/a&gt;\nudp://tracker.beeimg.com:6969/announce\n\n\n\n","torrent":{"xt":"urn:btih:ef1992f3c0a3677e633ae349ba4048a638bb6286","amp;dn":"Jack+the+Giant+Slayer+2013+1080p+x264+-+alrmothe","amp;tr":["udp%3A%2F%2Ftracker.openbittorrent.com%3A80","udp%3A%2F%2Fopen.demonii.com%3A1337","udp%3A%2F%2Ftracker.coppersurfer.tk%3A6969","udp%3A%2F%2Fexodus.desync.com%3A6969"],"infoHash":"ef1992f3c0a3677e633ae349ba4048a638bb6286","infoHashBuffer":{"type":"Buffer","data":[239,25,146,243,192,163,103,126,99,58,227,73,186,64,72,166,56,187,98,134]},"announce":[],"urlList":[]}}